<svg xmlns="http://www.w3.org/2000/svg" viewBox="0 0 500 500"><g id="freepik--background-complete--inject-11"><rect y="382.4" width="500" height="0.25" style="fill:#ebebeb"></rect><rect x="78.54" y="390.79" width="33.12" height="0.25" style="fill:#ebebeb"></rect><rect x="133.33" y="398" width="30.17" height="0.25" style="fill:#ebebeb"></rect><rect x="56.85" y="400.07" width="38.25" height="0.25" style="fill:#ebebeb"></rect><rect x="434" y="399.53" width="15.9" height="0.25" style="fill:#ebebeb"></rect><rect x="391.47" y="399.53" width="39.32" height="0.25" style="fill:#ebebeb"></rect><rect x="250" y="390.66" width="30.33" height="0.25" style="fill:#ebebeb"></rect><rect x="284.67" y="390.66" width="72.09" height="0.25" style="fill:#ebebeb"></rect><path d="M237,337.8H43.92a5.71,5.71,0,0,1-5.71-5.71V60.66A5.71,5.71,0,0,1,43.92,55H237a5.71,5.71,0,0,1,5.71,5.71V332.09A5.71,5.71,0,0,1,237,337.8ZM43.92,55.2a5.47,5.47,0,0,0-5.46,5.46V332.09a5.47,5.47,0,0,0,5.46,5.46H237a5.47,5.47,0,0,0,5.46-5.46V60.66A5.47,5.47,0,0,0,237,55.2Z" style="fill:#ebebeb"></path><path d="M453.31,337.8H260.21a5.72,5.72,0,0,1-5.71-5.71V60.66A5.72,5.72,0,0,1,260.21,55h193.1A5.71,5.71,0,0,1,459,60.66V332.09A5.71,5.71,0,0,1,453.31,337.8ZM260.21,55.2a5.47,5.47,0,0,0-5.46,5.46V332.09a5.47,5.47,0,0,0,5.46,5.46h193.1a5.47,5.47,0,0,0,5.46-5.46V60.66a5.47,5.47,0,0,0-5.46-5.46Z" style="fill:#ebebeb"></path><path d="M204.91,242.42S204,269.6,168.16,269.6s-36.75-27.18-36.75-27.18Z" style="fill:#f0f0f0"></path><rect x="82.81" y="278.15" width="39.43" height="95.39" style="fill:#f0f0f0"></rect><rect x="90.38" y="373.54" width="194.46" height="8.86" style="fill:#f0f0f0"></rect><rect x="122.24" y="278.15" width="170.17" height="95.39" transform="translate(414.65 651.7) rotate(180)" style="fill:#f5f5f5"></rect><rect x="137.74" y="289.76" width="139.17" height="29.35" transform="translate(414.65 608.87) rotate(180)" style="fill:#f0f0f0"></rect><rect x="137.74" y="327.47" width="139.17" height="29.35" transform="translate(414.65 684.29) rotate(180)" style="fill:#f0f0f0"></rect><rect x="187.86" y="288.5" width="38.94" height="6.29" rx="3.14" style="fill:#f5f5f5"></rect><path d="M223.65,332.49H191a3.15,3.15,0,0,1-3.14-3.14h0a3.15,3.15,0,0,1,3.14-3.14h32.65a3.15,3.15,0,0,1,3.15,3.14h0A3.15,3.15,0,0,1,223.65,332.49Z" style="fill:#f5f5f5"></path><rect x="122.24" y="269.6" width="175.43" height="8.55" style="fill:#f0f0f0"></rect><rect x="77.3" y="269.6" width="44.94" height="8.55" transform="translate(199.54 547.76) rotate(180)" style="fill:#e6e6e6"></rect><rect x="320.5" y="85.32" width="102.01" height="136.42" style="fill:#e6e6e6"></rect><rect x="323.1" y="85.32" width="107.2" height="136.42" style="fill:#f5f5f5"></rect><rect x="332.08" y="94.3" width="89.24" height="118.46" style="fill:#fff"></rect><path d="M408.75,161.21s-.81,23.7-32.05,23.7-32.05-23.7-32.05-23.7Z" style="fill:#f0f0f0"></path><circle cx="362.53" cy="136.63" r="6" style="fill:#f0f0f0"></circle><circle cx="390.87" cy="136.63" r="6" style="fill:#f0f0f0"></circle><rect x="331.08" y="303.14" width="36.07" height="79.25" style="fill:#e6e6e6"></rect><rect x="367.15" y="303.14" width="63.45" height="79.25" transform="translate(797.76 685.54) rotate(180)" style="fill:#f5f5f5"></rect><rect x="360.91" y="316.03" width="75.93" height="56.8" transform="translate(743.31 -54.45) rotate(90)" style="fill:#e6e6e6"></rect><rect x="339.68" y="337.26" width="75.93" height="14.34" transform="translate(722.08 -33.22) rotate(90)" style="fill:#e0e0e0"></rect><rect x="389.18" y="285.64" width="20.09" height="59.71" transform="translate(714.72 -83.73) rotate(90)" style="fill:#f5f5f5"></rect><path d="M424.58,323.4h-50.7V307.58h50.7Zm-49.7-1h48.7V308.58h-48.7Z" style="fill:#e6e6e6"></path><path d="M401.81,315.52a2.59,2.59,0,1,1-2.58-2.59A2.58,2.58,0,0,1,401.81,315.52Z" style="fill:#e6e6e6"></path><polygon points="375.07 303.14 359.85 303.14 364.36 269.78 375.07 269.78 375.07 303.14" style="fill:#e6e6e6"></polygon><polygon points="397.41 303.14 368.56 303.14 363.19 264.1 392.04 264.1 397.41 303.14" style="fill:#f0f0f0"></polygon><polygon points="401.26 303.14 371.24 303.14 365.87 264.1 395.89 264.1 401.26 303.14" style="fill:#f5f5f5"></polygon><polygon points="373.89 300.07 369.37 267.17 393.24 267.17 397.76 300.07 373.89 300.07" style="fill:#fff"></polygon><path d="M380,290.66,378.14,277a1.66,1.66,0,0,1,1.64-1.88h5.69a1.66,1.66,0,0,1,1.65,1.43L389,290.21a1.66,1.66,0,0,1-1.64,1.88h-5.69A1.67,1.67,0,0,1,380,290.66Z" style="fill:#f5f5f5"></path><rect x="78.69" y="75.96" width="200.95" height="144.26" style="fill:#fafafa"></rect><polygon points="268.2 220.22 217.09 75.96 178.73 75.96 229.85 220.22 268.2 220.22" style="fill:#fff"></polygon><polygon points="165.06 220.22 113.95 75.96 99.96 75.96 151.07 220.22 165.06 220.22" style="fill:#fff"></polygon><path d="M69.11,71H289.22a.9.9,0,0,1,.9.89h0a.9.9,0,0,1-.9.9H69.11a.9.9,0,0,1-.9-.9h0A.89.89,0,0,1,69.11,71Z" style="fill:#e0e0e0"></path><rect x="177.97" y="75.65" width="2.38" height="144.88" style="fill:#f0f0f0"></rect><rect x="176.78" y="75.65" width="1.19" height="144.88" style="fill:#e0e0e0"></rect><rect x="177.97" y="46.23" width="2.38" height="203.73" transform="translate(31.07 327.26) rotate(-90)" style="fill:#f0f0f0"></rect><path d="M77.3,219.23h0V74.57H281V219.23h0v2.38H77.3Zm201.35,0V77h-199V219.23Z" style="fill:#f0f0f0"></path><rect x="76.11" y="74.57" width="1.19" height="147.04" style="fill:#e0e0e0"></rect><polygon points="106.84 68.82 106.84 238.23 63.83 238.23 71.72 68.82 106.84 68.82" style="fill:#ebebeb;opacity:0.5"></polygon><polygon points="250.3 68.82 250.3 238.23 293.31 238.23 285.42 68.82 250.3 68.82" style="fill:#ebebeb;opacity:0.5"></polygon></g><g id="freepik--Shadow--inject-11"><ellipse id="freepik--path--inject-11" cx="250" cy="416.24" rx="193.89" ry="11.32" style="fill:#f5f5f5"></ellipse></g><g id="freepik--character-1--inject-11"><polygon points="239.02 402.49 246.77 400.41 244.02 381.9 236.26 383.98 239.02 402.49" style="fill:#ffc3bd"></polygon><polygon points="167.33 409.52 175.36 409.52 181.61 390.93 173.59 390.93 167.33 409.52" style="fill:#ffc3bd"></polygon><path d="M176.43,408.59h-9.79a.7.7,0,0,0-.68.55l-1.58,7.13a1.18,1.18,0,0,0,1.17,1.43c3.15-.06,5.45-.24,9.41-.24,2.44,0,9.8.25,13.17.25s3.81-3.33,2.43-3.63c-6.19-1.35-10.85-3.22-12.83-5A1.93,1.93,0,0,0,176.43,408.59Z" style="fill:#263238"></path><path d="M246.48,399.52,238,401.8a.7.7,0,0,0-.52.7l.32,7.3a1.17,1.17,0,0,0,1.49,1.08c3-.87,7.4-2.23,11.24-3.26,4.49-1.21,6.41-1.6,11.67-3,3.18-.85,3.2-4.31,1.79-4.24-6.42.3-9.38,1.08-15.49-.74A3.7,3.7,0,0,0,246.48,399.52Z" style="fill:#263238"></path><path d="M214.91,163.23l8.54,14.44,4.29,7.2c1.44,2.38,2.88,4.75,4.35,7.09.2.35.38.57.42.64s-.14-.06-.6-.12a1.55,1.55,0,0,0-1,.16c-.07.07.13,0,.4-.17a12,12,0,0,0,2-2.12,33.91,33.91,0,0,0,2.08-3.09c1.36-2.21,2.6-4.62,3.8-7.08s2.36-5,3.46-7.5l5.79,1.64a78.82,78.82,0,0,1-4.89,17.1,38.81,38.81,0,0,1-2.15,4.27A19.55,19.55,0,0,1,238,200.1a11.16,11.16,0,0,1-3.14,2.14,8.7,8.7,0,0,1-5.18.63,9.38,9.38,0,0,1-4.3-2.11,14.65,14.65,0,0,1-2.36-2.55c-3.49-4.65-6.75-9.39-9.85-14.21s-6-9.69-8.86-14.74Z" style="fill:#ffc3bd"></path><path d="M200.62,164.27c-1.73,7.48,14.68,26.61,14.68,26.61l14.75-10.79a97.93,97.93,0,0,0-11.71-17.38C211.58,155.08,202.5,156.06,200.62,164.27Z" style="fill:#00FF88"></path><path d="M200.62,164.27c-1.73,7.48,14.68,26.61,14.68,26.61l14.75-10.79a97.93,97.93,0,0,0-11.71-17.38C211.58,155.08,202.5,156.06,200.62,164.27Z" style="opacity:0.4"></path><polygon points="244.02 381.91 245.44 391.44 237.68 393.53 236.26 383.99 244.02 381.91" style="opacity:0.2"></polygon><polygon points="173.58 390.93 181.61 390.93 178.38 400.52 170.35 400.52 173.58 390.93" style="opacity:0.2"></polygon><path d="M164.7,163.16c10.45,29.92,10.64,62.32,11.81,68.82,6.24-.83,29.74-4,42.55-5.73,2.88-45.94-9.74-68.7-9.74-68.7s-2.78-.37-6.54-.53c-1.18-.05-2.45-.08-3.77-.08-.73,0-1.47,0-2.22.06a156.88,156.88,0,0,0-18.09,2.44c-1.13.21-2.28.45-3.39.7s-2,.49-3,.74C168,162,164.7,163.16,164.7,163.16Z" style="fill:#00FF88"></path><path d="M164.7,163.16c10.45,29.92,10.64,62.32,11.81,68.82,6.24-.83,29.74-4,42.55-5.73,2.88-45.94-9.74-68.7-9.74-68.7s-2.78-.37-6.54-.53c-1.18-.05-2.45-.08-3.77-.08-.73,0-1.47,0-2.22.06a156.88,156.88,0,0,0-18.09,2.44c-1.13.21-2.28.45-3.39.7s-2,.49-3,.74C168,162,164.7,163.16,164.7,163.16Z" style="opacity:0.4"></path><path d="M174.49,176.94c1.69,4.5.37,17-1.48,21.25-.66-4.46-1.47-9.13-2.49-13.93Z" style="opacity:0.2"></path><path d="M246.75,176.68l7.2-5-8.35-5.94a7.72,7.72,0,0,0-3.27,8.55Z" style="fill:#ffc3bd"></path><polygon points="257.9 167.69 250.4 162.93 245.6 165.72 253.96 171.66 257.9 167.69" style="fill:#ffc3bd"></polygon><path d="M177.75,138.83c1.93,5.66,4.51,16.17,1,20.6,3.58,2.72,8.21,5.8,15.15,5.11s5.1-5.28,2.93-7.54c-6.69-.68-7.18-5.52-6.65-10.19Z" style="fill:#ffc3bd"></path><path d="M182.8,142.08l7.33,4.72a19.27,19.27,0,0,0-.13,3.29,8.94,8.94,0,0,1-7.25-4.28C181.91,144.2,182.19,142.36,182.8,142.08Z" style="opacity:0.2"></path><path d="M193.11,120.94l2.3,11.74C201,120.94,193.11,120.94,193.11,120.94Z" style="fill:#263238"></path><path d="M174.44,130.7c2.08,7.69,2.91,12.3,7.66,15.49,7.16,4.79,16-.75,16.3-8.91.23-7.34-3.21-18.68-11.47-20.21A10.86,10.86,0,0,0,174.44,130.7Z" style="fill:#ffc3bd"></path><path d="M174.05,135c-3.23-3.23-6.89-9.89-4-11.84-1.88-2.89.43-6.86,7.71-8.53s17.49-.79,20.29.59c2,1-3.83,2.5-3.83,2.5s6.5,0,6.39,2.61-22.5,3.41-22.5,3.41S183.2,130.56,174.05,135Z" style="fill:#263238"></path><path d="M171.45,123.42c.76-.64-.57-1.51-2.33-1a1.83,1.83,0,0,1-2.34-.83s0,2.08,1.83,1.65C169.72,123,170.33,124.37,171.45,123.42Z" style="fill:#263238"></path><path d="M172.13,138.74a7.56,7.56,0,0,0,5.3,2.32c2.65,0,3.3-2.5,2-4.65-1.18-1.94-4-4.29-6.37-3.3S170.45,137,172.13,138.74Z" style="fill:#ffc3bd"></path><path d="M248.31,388.59l-13.13,3.52s-12.49-46.25-16.43-70.95c-1.21-7.52-3.88-17.92-7.12-29-4.09-14-9.06-29.08-13.09-40.89-4.25-12.44-7.45-21.23-7.45-21.23l28-3.77s20.06,61,22.46,85.42C244,337,248.31,388.59,248.31,388.59Z" style="fill:#263238"></path><path d="M211.63,292.14c-4.09-14-9.06-29.08-13.09-40.89l2.51-6.47C208.55,252.61,212.08,278.13,211.63,292.14Z" style="opacity:0.2"></path><path d="M205.72,228.05s-.36,69-2.25,92.45c-2.07,25.67-20.73,77.12-20.73,77.12H168s9.23-47,12.24-71.93c3.43-28.4-3.76-93.71-3.76-93.71Z" style="fill:#263238"></path><polygon points="183.92 398.75 166.61 398.75 166.61 393.58 185.96 393.24 183.92 398.75" style="fill:#00FF88"></polygon><polygon points="249.35 388.75 233.71 392.95 232.35 387.89 248.89 383.18 249.35 388.75" style="fill:#00FF88"></polygon><path d="M185.91,130.45c.13.64.58,1.08,1,1s.65-.66.51-1.3-.57-1.08-1-1S185.78,129.82,185.91,130.45Z" style="fill:#263238"></path><path d="M193.08,129c.13.63.57,1.08,1,1s.64-.67.51-1.3-.57-1.08-1-1S193,128.34,193.08,129Z" style="fill:#263238"></path><path d="M191.65,129.76a23.32,23.32,0,0,0,4.15,4.8,3.72,3.72,0,0,1-2.91,1.19Z" style="fill:#ed847e"></path><path d="M190.56,138a5.34,5.34,0,0,1-4-1.34.19.19,0,1,1,.27-.27,5.15,5.15,0,0,0,4.5,1.12.2.2,0,0,1,.23.15.19.19,0,0,1-.15.22A6.53,6.53,0,0,1,190.56,138Z" style="fill:#263238"></path><path d="M184,128.59a.39.39,0,0,1-.18,0,.37.37,0,0,1-.18-.5,3.76,3.76,0,0,1,2.71-2.16.38.38,0,1,1,.1.75h0a3,3,0,0,0-2.13,1.73A.38.38,0,0,1,184,128.59Z" style="fill:#263238"></path><path d="M196.45,125.88a.43.43,0,0,1-.33-.15,3,3,0,0,0-2.44-1.25.39.39,0,0,1-.41-.35.37.37,0,0,1,.35-.41,3.78,3.78,0,0,1,3.11,1.55.39.39,0,0,1-.07.53A.46.46,0,0,1,196.45,125.88Z" style="fill:#263238"></path><path d="M179.09,410a9.19,9.19,0,0,1-2.11-.29.19.19,0,0,1-.14-.15.18.18,0,0,1,.09-.19c.29-.19,2.88-1.78,3.77-1.32a.6.6,0,0,1,.32.54,1.12,1.12,0,0,1-.39,1A2.38,2.38,0,0,1,179.09,410Zm-1.55-.56c1.36.28,2.41.23,2.85-.14a.78.78,0,0,0,.25-.69c0-.15-.06-.2-.12-.22C180.06,408.14,178.59,408.83,177.54,409.43Z" style="fill:#00FF88"></path><path d="M177,409.71a.17.17,0,0,1-.1,0,.19.19,0,0,1-.09-.18c0-.1.2-2.41,1.13-3.17a1.07,1.07,0,0,1,.81-.25h0a.63.63,0,0,1,.61.5c.17.9-1.44,2.65-2.27,3.1Zm1.62-3.26a.7.7,0,0,0-.44.17,4.62,4.62,0,0,0-1,2.52c.83-.63,1.85-2,1.75-2.49,0,0,0-.16-.27-.19h-.09Z" style="fill:#00FF88"></path><path d="M247.53,400.39a.18.18,0,0,1-.16-.11.18.18,0,0,1,0-.22c.31-.28,3-2.69,4.08-2.42a.61.61,0,0,1,.44.41h0a1.06,1.06,0,0,1-.11,1c-.65,1-2.95,1.27-4.27,1.36Zm3.79-2.39c-.63-.05-2.15,1.05-3.22,2,1.78-.17,3-.59,3.4-1.14a.7.7,0,0,0,.07-.65.25.25,0,0,0-.17-.16Z" style="fill:#00FF88"></path><path d="M247.53,400.39h-.06a.23.23,0,0,1-.12-.15c0-.09-.36-2.23.41-3.31a1.42,1.42,0,0,1,.93-.59h0c.52-.08.73.14.82.33.38.84-1,3-1.85,3.69A.2.2,0,0,1,247.53,400.39ZM249,396.7a.72.72,0,0,0-.2,0h0a1,1,0,0,0-.68.43,4.48,4.48,0,0,0-.39,2.67c.8-.83,1.71-2.49,1.48-3C249.15,396.79,249.11,396.71,249,396.7Zm-.23-.18h0Z" style="fill:#00FF88"></path><path d="M174.52,171.83c-1,5.09-2,10.24-3,15.34s-2.07,10.22-3,15.3l-.36,1.9-.09.47c0,.14-.07.41,0,.25a3.71,3.71,0,0,0-.15-.94,3.9,3.9,0,0,0-1.09-1.72,3,3,0,0,0-1.19-.67c-.47-.07-.23.05.05.06a12.52,12.52,0,0,0,2.83-.3c1.11-.2,2.28-.49,3.46-.81,4.75-1.3,9.68-3.1,14.54-4.78l2.84,5.31c-2.23,1.62-4.48,3.06-6.83,4.44a78.07,78.07,0,0,1-7.33,3.83c-1.3.57-2.62,1.12-4.05,1.61a22.12,22.12,0,0,1-4.91,1.13,10.41,10.41,0,0,1-3.85-.31,7.59,7.59,0,0,1-2.91-1.61,7.24,7.24,0,0,1-2.07-3.4A8.45,8.45,0,0,1,157,204l.12-1.23.22-2c.6-5.32,1.36-10.58,2.22-15.82s1.86-10.41,3-15.63Z" style="fill:#ffc3bd"></path><path d="M162,165.13c-5.24,5.6-5.71,22.83-5.71,22.83l15.18,7.15s4.91-10.94,5.07-20.86C176.72,163,167.28,159.48,162,165.13Z" style="fill:#00FF88"></path><path d="M162,165.13c-5.24,5.6-5.71,22.83-5.71,22.83l15.18,7.15s4.91-10.94,5.07-20.86C176.72,163,167.28,159.48,162,165.13Z" style="opacity:0.4"></path><path d="M185.8,196.08l7.1-4,.83,10.22s-6.8,2.05-8.29-1.43Z" style="fill:#ffc3bd"></path><polygon points="200.26 192.09 202.99 197.5 193.73 202.31 192.9 192.09 200.26 192.09" style="fill:#ffc3bd"></polygon></g><g id="freepik--character-2--inject-11"><path d="M293.37,198.54c0,.75.05,1.25,0,1.85s0,1.15-.07,1.71c-.07,1.14-.19,2.26-.35,3.38a37.4,37.4,0,0,1-1.63,6.66,30.34,30.34,0,0,1-3.07,6.37c-.34.5-.67,1-1.05,1.48-.18.24-.36.49-.56.72l-.67.8a5.23,5.23,0,0,1-3,1.73,5.06,5.06,0,0,1-2,0,5.38,5.38,0,0,1-1.38-.53,6.56,6.56,0,0,1-1.49-1.12,9.42,9.42,0,0,1-.84-1,19.51,19.51,0,0,1-1.93-3.27c-.49-1-.92-2-1.31-3-.77-2-1.45-4-2-6a117.93,117.93,0,0,1-3-12.07l4.33-1.29c1.58,3.69,3.2,7.41,4.83,11,.84,1.8,1.67,3.59,2.56,5.29.45.84.9,1.68,1.36,2.44a10.88,10.88,0,0,0,1.34,1.86c.09.09.17.17.18.16s0,0-.27-.21a2.71,2.71,0,0,0-.67-.25,3.15,3.15,0,0,0-1.24,0,3.28,3.28,0,0,0-1.73.93c-.1.13,0,0,0,0l.08-.13.17-.25c.12-.17.22-.35.33-.52.22-.34.41-.71.61-1.08a24.62,24.62,0,0,0,1.87-4.74,35.48,35.48,0,0,0,1.06-5.22c.12-.89.22-1.78.28-2.68,0-.45.05-.89.06-1.33s0-.93,0-1.19Z" style="fill:#7f3e3b"></path><path d="M289.17,188.63c-8.11,6.2-7.79,17.9-7.79,17.9l14.5,3.47s4.45-11.76,2.65-16.07C296.65,189.44,293.73,185.13,289.17,188.63Z" style="fill:#263238"></path><path d="M294,197.2c-1.69,1.63-3.7,6.77-4.18,11.35l6.05,1.45s2.79-7.39,3.05-12.6C298.07,196.09,296.2,195.29,294,197.2Z" style="opacity:0.2"></path><path d="M274.82,193,270.34,188l-4.6,6.17s3.43,4.66,8.18,3.54Z" style="fill:#7f3e3b"></path><polygon points="266.64 184.06 263.83 186.54 265.74 194.18 270.34 188.01 266.64 184.06" style="fill:#7f3e3b"></polygon><polygon points="330.73 409.3 322.46 410.09 316.7 390.68 324.97 389.88 330.73 409.3" style="fill:#7f3e3b"></polygon><polygon points="388.69 380.6 382.56 386.35 369.34 371.82 375.47 366.06 388.69 380.6" style="fill:#7f3e3b"></polygon><path d="M380.74,384.43l4.6-8.3a.67.67,0,0,1,.83-.31l7.09,2.7a1.35,1.35,0,0,1,.65,1.91c-1.65,2.87-2.59,4.16-4.62,7.81-1.24,2.25-3.67,7.39-5.39,10.49s-4.87,1.56-4.44.12c2-6.48,1.6-10.08,1.05-12.94A2.16,2.16,0,0,1,380.74,384.43Z" style="fill:#263238"></path><path d="M321,407.57h10a.84.84,0,0,1,.79.61l2.17,7.93a1.23,1.23,0,0,1-1.22,1.58c-3.53,0-5.2,0-9.6,0H309.71c-3.66,0-4.42-3.7-2.91-4,6.79-1.5,10.71-3.57,12.8-5.55A2.1,2.1,0,0,1,321,407.57Z" style="fill:#263238"></path><polygon points="316.7 390.69 319.67 400.69 328.18 400.69 324.98 389.89 316.7 390.69" style="opacity:0.2"></polygon><polygon points="375.47 366.07 369.34 371.82 376.16 379.31 382.29 373.56 375.47 366.07" style="opacity:0.2"></polygon><path d="M291.61,187.42S288,189,300.24,237.7l34.17-2.95c-1.78-13.86-2.54-22.43,1.64-51.54a101.11,101.11,0,0,0-14.67-.66,108.71,108.71,0,0,0-15.51,1.35A144.07,144.07,0,0,0,291.61,187.42Z" style="fill:#263238"></path><path d="M330.41,196.09c-1.47,3.12-.92,13.56,2.61,17.21.11-4.21.45-9.05,1.1-15A4.86,4.86,0,0,0,330.41,196.09Z" style="opacity:0.2"></path><path d="M309.5,194.16c-.06.72-.37,1.28-.69,1.25s-.53-.64-.47-1.36.38-1.28.7-1.25S309.57,193.43,309.5,194.16Z" style="fill:#fff"></path><path d="M320.77,182l-11.26,8.09a27.54,27.54,0,0,1,5.76,9.62C322.66,193.6,328.43,183.75,320.77,182Z" style="fill:#fff"></path><path d="M306.51,183.33c-5.88,1.5-6.5,10.35-2.45,15,1.58-5.71,4.72-7.9,4.72-7.9Z" style="fill:#fff"></path><path d="M299.32,147.22c-2.25-.21-2.91,1.91-2.21,4,1,3.05-2.49,9-5.7,12.5-4.67,5.15,3.79,15.39,13.87,11.86,11.66-4.07,18.6,7.28,25.19-1.58,4.74-6.38-2.77-12-.73-20.54,1.22-5.12-1-12.23-8.91-11.79-7.34.4-9.16-7.86-16.29-5.61S299.32,147.22,299.32,147.22Z" style="fill:#263238"></path><path d="M318.33,165.22c-.55,5.07-.73,14.3,3.05,17.33a57.68,57.68,0,0,1-12.21,8.67c-5.93-4.1-3.3-7.32-3.3-7.32,5.45-1.82,4.95-5.93,3.64-9.73Z" style="fill:#7f3e3b"></path><path d="M314.73,168.87l-5.22,5.3a15.1,15.1,0,0,1,.72,2.71c2.1-.49,5.14-2.67,5.17-4.92A8.79,8.79,0,0,0,314.73,168.87Z" style="opacity:0.2"></path><path d="M322.8,157.29c-2.12,8.11-2.84,11.58-7.82,15-7.48,5.11-17,.74-17.32-7.84-.31-7.72,3.2-19.68,11.88-21.37A11.44,11.44,0,0,1,322.8,157.29Z" style="fill:#7f3e3b"></path><path d="M303.78,144.58c-5.35,3.64,7.26,7.16,10.88,7.16a7.91,7.91,0,0,1-2.2-3s5.36,3.22,5.25,6.19c-.08,2.29-.85,7.27,3.15,6.73s5.73-10.84,3-14S312.37,138.74,303.78,144.58Z" style="fill:#263238"></path><path d="M323.47,164.16a6.12,6.12,0,0,1-3.61,3c-2.05.62-3.12-1.21-2.59-3.17.49-1.77,2.14-4.22,4.22-4A2.75,2.75,0,0,1,323.47,164.16Z" style="fill:#7f3e3b"></path><path d="M300.24,237.7s-11.56,51.13-3.84,87.18c5.17,24.14,19.69,72.91,19.69,72.91l14.57-.37s-10-51.18-12.91-71.31c-5-34.43,7.51-90.57,7.51-90.57Z" style="fill:#00FF88"></path><path d="M313.57,248l7.29,11.5a350,350,0,0,0-4.17,41.16C306.44,282.33,311.29,257.74,313.57,248Z" style="opacity:0.2"></path><polygon points="314.04 398.55 332.04 398.09 331 392.56 312.63 393.43 314.04 398.55" style="fill:#263238"></polygon><path d="M307.71,237.16s6.78,54.22,21.48,83.82c11.87,23.92,43.55,57.95,43.55,57.95l8.1-8.34s-21.39-37-30.22-52.88c-21.63-38.94-3.95-68.66-16.21-83Z" style="fill:#00FF88"></path><polygon points="371.92 380.05 382.38 369.86 378.91 365.14 367.82 376.21 371.92 380.05" style="fill:#263238"></polygon><path d="M334.74,232.7l1.81,2.92c.14.23-.12.49-.52.53l-35.82,3.1c-.31,0-.58-.11-.62-.3l-.57-3c0-.21.21-.41.55-.44l34.6-3A.61.61,0,0,1,334.74,232.7Z" style="fill:#00FF88"></path><path d="M334.74,232.7l1.81,2.92c.14.23-.12.49-.52.53l-35.82,3.1c-.31,0-.58-.11-.62-.3l-.57-3c0-.21.21-.41.55-.44l34.6-3A.61.61,0,0,1,334.74,232.7Z" style="fill:#fff;opacity:0.30000000000000004"></path><path d="M330.43,237l.93-.08c.18,0,.32-.13.29-.24l-.77-3.94c0-.11-.2-.19-.38-.18l-.93.08c-.18,0-.31.13-.29.24l.78,3.94C330.08,236.9,330.25,237,330.43,237Z" style="fill:#00FF88"></path><path d="M302.84,239.35l.93-.08c.18,0,.31-.12.29-.24l-.78-3.93c0-.12-.19-.2-.37-.18L302,235c-.19,0-.32.12-.3.24l.78,3.93C302.49,239.29,302.66,239.37,302.84,239.35Z" style="fill:#00FF88"></path><path d="M316.64,238.16l.92-.08c.19,0,.32-.12.3-.24l-.78-3.93c0-.12-.19-.2-.38-.18l-.92.08c-.19,0-.32.12-.3.23l.78,3.94C316.28,238.09,316.45,238.18,316.64,238.16Z" style="fill:#00FF88"></path><path d="M309.07,157c-.13.67-.59,1.14-1,1.05s-.68-.69-.55-1.36.59-1.14,1-1.06S309.2,156.34,309.07,157Z" style="fill:#263238"></path><path d="M301.52,155.52c-.13.67-.59,1.15-1,1.06s-.69-.7-.55-1.37.59-1.14,1-1.05S301.65,154.86,301.52,155.52Z" style="fill:#263238"></path><path d="M301.15,154.23l-1.51-.77S300.21,154.87,301.15,154.23Z" style="fill:#263238"></path><path d="M304.11,157.19a18.4,18.4,0,0,1-3.22,3.8,3,3,0,0,0,2.3.91Z" style="fill:#630f0f"></path><path d="M306.28,165.09a5.5,5.5,0,0,0,3.8-1.45.16.16,0,0,0,0-.24.16.16,0,0,0-.23,0,5.49,5.49,0,0,1-4.76,1.23.16.16,0,0,0-.19.13.16.16,0,0,0,.13.19A6.25,6.25,0,0,0,306.28,165.09Z" style="fill:#263238"></path><path d="M313.61,154.42a.34.34,0,0,0,.17,0,.33.33,0,0,0,.11-.46,3.86,3.86,0,0,0-3-1.94.32.32,0,0,0-.34.32.33.33,0,0,0,.32.34,3.21,3.21,0,0,1,2.46,1.63A.35.35,0,0,0,313.61,154.42Z" style="fill:#263238"></path><path d="M299.42,151.74a.29.29,0,0,0,.16,0,3.24,3.24,0,0,1,2.95-.19.34.34,0,0,0,.45-.14.34.34,0,0,0-.14-.45,3.88,3.88,0,0,0-3.58.2.33.33,0,0,0-.13.45A.32.32,0,0,0,299.42,151.74Z" style="fill:#263238"></path><path d="M339,191.38a108.19,108.19,0,0,1,5.77,12,57.18,57.18,0,0,1,2.27,6.55,23.28,23.28,0,0,1,.74,3.91,10.1,10.1,0,0,1-.12,2.82l-.11.48c-.05.18-.11.36-.17.54a5.92,5.92,0,0,1-.26.59c-.09.19-.12.23-.19.36a9.3,9.3,0,0,1-.83,1.21,9.09,9.09,0,0,1-4.66,3,13.65,13.65,0,0,1-4.41.43,27.25,27.25,0,0,1-7.2-1.53,55.35,55.35,0,0,1-12.08-6.07l2.12-4a82.49,82.49,0,0,0,11.76,3.51,22.55,22.55,0,0,0,5.48.52,5.54,5.54,0,0,0,1.95-.38c.46-.21.55-.38.61-.5a1.09,1.09,0,0,0,.05-.14s0-.06,0,0a1.15,1.15,0,0,0-.1.23.88.88,0,0,0-.05.15.16.16,0,0,0,0,.09c0,.15,0-.09-.1-.39a19.09,19.09,0,0,0-.67-2.37c-.61-1.77-1.42-3.64-2.25-5.5-1.71-3.71-3.62-7.51-5.5-11.16Z" style="fill:#7f3e3b"></path><path d="M321.34,213.19,318,206.43l-4.55,5.87s2.79,4.1,6.29,4Z" style="fill:#7f3e3b"></path><polygon points="314.4 204.48 310.08 209.25 313.45 212.3 318 206.43 314.4 204.48" style="fill:#7f3e3b"></polygon><path d="M336.05,183.21c4.19.74,11.05,15.73,11.05,15.73L333.6,208s-6.45-11.65-6-17.11C328,186.26,330.72,182.27,336.05,183.21Z" style="fill:#263238"></path><path d="M379.12,388.88a1.26,1.26,0,0,0,.33-.05c1-.34,1.66-2.19,2-3.27a.16.16,0,0,0-.06-.17.17.17,0,0,0-.18,0c-.3.16-3,1.59-3.07,2.65a.67.67,0,0,0,.29.59A1.22,1.22,0,0,0,379.12,388.88Zm1.85-3c-.46,1.48-1.06,2.46-1.63,2.65a.75.75,0,0,1-.75-.17.34.34,0,0,1-.16-.3C378.49,387.4,380.06,386.38,381,385.86Z" style="fill:#00FF88"></path><path d="M378.71,386.28a6.1,6.1,0,0,0,2.63-.62.15.15,0,0,0,.07-.15.16.16,0,0,0-.08-.14c-.09-.05-2.21-1.21-3.35-.81a1.05,1.05,0,0,0-.63.59.66.66,0,0,0,.16.82A1.87,1.87,0,0,0,378.71,386.28Zm2.17-.76c-.9.38-2.66.62-3.16.2-.08-.07-.16-.18-.06-.44a.66.66,0,0,1,.43-.4C378.87,384.6,380.28,385.22,380.88,385.52Z" style="fill:#00FF88"></path><path d="M316.58,409.19a13.47,13.47,0,0,0,2.73-.34.18.18,0,0,0,.13-.15.17.17,0,0,0-.1-.17c-.41-.19-4-1.87-5-1.25a.55.55,0,0,0-.23.52,1.2,1.2,0,0,0,.49.93A3.27,3.27,0,0,0,316.58,409.19Zm2.16-.57c-1.08.21-3.08.47-3.9-.15a.88.88,0,0,1-.36-.69c0-.14,0-.19.09-.22C315.08,407.21,317.23,408,318.74,408.62Z" style="fill:#00FF88"></path><path d="M319.27,408.85a.15.15,0,0,0,.11,0,.17.17,0,0,0,.06-.16c0-.15-.86-3.74-2.84-3.51-.49.06-.62.3-.65.5-.12.91,2.17,2.75,3.26,3.2Zm-2.49-3.39c1.26,0,2,2.09,2.24,2.92-1.18-.62-2.82-2.11-2.74-2.7,0,0,0-.17.36-.21Z" style="fill:#00FF88"></path><path d="M308.7,155.72l-1.51-.78S307.77,156.36,308.7,155.72Z" style="fill:#263238"></path></g><g id="freepik--infinity-symbol--inject-11"><path d="M253.85,125.85l-.57-.82c2.59-1.82,5.24-3.54,7.9-5.12l.51.86C259.06,122.34,256.42,124.05,253.85,125.85ZM219.24,91.21c-1.25-.74-2.51-1.44-3.77-2.1l.46-.88c1.27.66,2.56,1.37,3.82,2.12Zm-6.8-3.58a72,72,0,0,0-15.84-5.24l.2-1a72.73,72.73,0,0,1,16.06,5.31Z" style="fill:#00FF88"></path><path d="M322.35,110.62c-29.57-6-55.84,8.92-69.67,19.15-8.71-14.83-27-38.89-56.57-44.93h0a48.69,48.69,0,1,0-19.48,95.41,69.19,69.19,0,0,0,13.84,1.39c23.78,0,44.2-11.94,55.82-20.54C255,175.93,273.3,200,302.86,206a48.69,48.69,0,1,0,19.49-95.41Zm-141.73,50a28.69,28.69,0,0,1,5.74-56.8,28.18,28.18,0,0,1,5.74.59h0c24,4.89,38.93,27.33,45,38.47C227.14,150.77,204.59,165.55,180.62,160.65Zm160.09,3.41a28.72,28.72,0,0,1-33.85,22.37c-24-4.89-38.93-27.33-45-38.47,10-7.87,32.52-22.64,56.48-17.74A28.71,28.71,0,0,1,340.71,164.06Z" style="fill:#00FF88"></path></g></svg>
